<svg id="seedGrid" data-name="Seed Grid" xmlns="http://www.w3.org/2000/svg" viewBox="0 0 26 26">
  <defs>
    <style>.cls-1{fill:#792b48;}</style>
  </defs>
  <title>Seed Grid</title>
  <path class="cls-1" d="M6.37369,7.31579A5.09723,5.09723,0,0,0,6.9592,5.68421a1.59716,1.59716,0,0,0-.26614-1.42105,1.04134,1.04134,0,0,0-1.38394,0A1.63992,1.63992,0,0,0,5.043,5.68421a5.1564,5.1564,0,0,0,.53228,1.63158c.08722.17409.3726.68421.3726.68421S6.27713,7.49251,6.37369,7.31579Z"/>
  <path class="cls-1" d="M18.62631,4.68421a5.09723,5.09723,0,0,0-.58551,1.63158,1.59716,1.59716,0,0,0,.26614,1.42105,1.04134,1.04134,0,0,0,1.38394,0A1.63992,1.63992,0,0,0,19.957,6.31579a5.1564,5.1564,0,0,0-.53228-1.63158C19.33752,4.51012,19.05214,4,19.05214,4S18.72287,4.50749,18.62631,4.68421Z"/>
  <path class="cls-1" d="M6.37369,20.31579a5.09723,5.09723,0,0,0,.58551-1.63158,1.59716,1.59716,0,0,0-.26614-1.42105,1.04134,1.04134,0,0,0-1.38394,0A1.63992,1.63992,0,0,0,5.043,18.68421a5.1564,5.1564,0,0,0,.53228,1.63158c.08722.17409.3726.68421.3726.68421S6.27713,20.49251,6.37369,20.31579Z"/>
  <path class="cls-1" d="M18.62631,17.68421a5.09723,5.09723,0,0,0-.58551,1.63158,1.59716,1.59716,0,0,0,.26614,1.42105,1.04134,1.04134,0,0,0,1.38394,0,1.63992,1.63992,0,0,0,.26614-1.42105,5.1564,5.1564,0,0,0-.53228-1.63158c-.08722-.17409-.3726-.68421-.3726-.68421S18.72287,17.50749,18.62631,17.68421Z"/>
</svg>
